<?xml version="1.0" encoding="iso-8859-1"?>
<!-- Generator: Adobe Illustrator 19.0.0, SVG Export Plug-In . SVG Version: 6.00 Build 0)  -->
<svg version="1.1" id="Layer_1" xmlns="http://www.w3.org/2000/svg" xmlns:xlink="http://www.w3.org/1999/xlink" x="0px" y="0px"
	 viewBox="0 0 512 512" style="enable-background:new 0 0 512 512;" xml:space="preserve">
<g>
	<path style="fill:#C7E5F4;" d="M256,238.428c-65.735,0-119.214-53.48-119.214-119.214S190.265,0,256,0
		c65.734,0,119.214,53.48,119.214,119.214S321.734,238.428,256,238.428z"/>
	<path style="fill:#C7E5F4;" d="M414.229,512H97.771c-10.687,0-19.351-8.664-19.351-19.351v-61.375
		c0-97.918,79.662-177.58,177.58-177.58s177.58,79.662,177.58,177.58v61.375C433.58,503.336,424.916,512,414.229,512z"/>
</g>
<g>
	<path style="fill:#60BFE1;" d="M256,0v238.428c65.734,0,119.214-53.48,119.214-119.214C375.214,53.478,321.734,0,256,0z"/>
	<path style="fill:#60BFE1;" d="M256,253.693V512h158.229c10.687,0,19.351-8.664,19.351-19.351v-61.375
		C433.58,333.355,353.918,253.693,256,253.693z"/>
</g>
<g>
</g>
<g>
</g>
<g>
</g>
<g>
</g>
<g>
</g>
<g>
</g>
<g>
</g>
<g>
</g>
<g>
</g>
<g>
</g>
<g>
</g>
<g>
</g>
<g>
</g>
<g>
</g>
<g>
</g>
</svg>
